<?xml version="1.0" standalone="no"?>
<svg xmlns:xlink="http://www.w3.org/1999/xlink" id="wave" style="transform:rotate(0deg); transition: 0.3s" viewBox="0 0 1440 200" version="1.1" xmlns="http://www.w3.org/2000/svg"><defs><linearGradient id="sw-gradient-0" x1="0" x2="0" y1="1" y2="0"><stop stop-color="rgba(184.74, 184.74, 184.74, 1)" offset="0%"/><stop stop-color="rgba(255, 255, 255, 1)" offset="100%"/></linearGradient></defs><path style="transform:translate(0, 0px); opacity:1" fill="url(#sw-gradient-0)" d="M0,100L34.3,96.7C68.6,93,137,87,206,93.3C274.3,100,343,120,411,123.3C480,127,549,113,617,103.3C685.7,93,754,87,823,70C891.4,53,960,27,1029,23.3C1097.1,20,1166,40,1234,43.3C1302.9,47,1371,33,1440,26.7C1508.6,20,1577,20,1646,30C1714.3,40,1783,60,1851,66.7C1920,73,1989,67,2057,63.3C2125.7,60,2194,60,2263,63.3C2331.4,67,2400,73,2469,70C2537.1,67,2606,53,2674,56.7C2742.9,60,2811,80,2880,96.7C2948.6,113,3017,127,3086,133.3C3154.3,140,3223,140,3291,146.7C3360,153,3429,167,3497,166.7C3565.7,167,3634,153,3703,153.3C3771.4,153,3840,167,3909,143.3C3977.1,120,4046,60,4114,30C4182.9,0,4251,0,4320,6.7C4388.6,13,4457,27,4526,36.7C4594.3,47,4663,53,4731,63.3C4800,73,4869,87,4903,93.3L4937.1,100L4937.1,200L4902.9,200C4868.6,200,4800,200,4731,200C4662.9,200,4594,200,4526,200C4457.1,200,4389,200,4320,200C4251.4,200,4183,200,4114,200C4045.7,200,3977,200,3909,200C3840,200,3771,200,3703,200C3634.3,200,3566,200,3497,200C3428.6,200,3360,200,3291,200C3222.9,200,3154,200,3086,200C3017.1,200,2949,200,2880,200C2811.4,200,2743,200,2674,200C2605.7,200,2537,200,2469,200C2400,200,2331,200,2263,200C2194.3,200,2126,200,2057,200C1988.6,200,1920,200,1851,200C1782.9,200,1714,200,1646,200C1577.1,200,1509,200,1440,200C1371.4,200,1303,200,1234,200C1165.7,200,1097,200,1029,200C960,200,891,200,823,200C754.3,200,686,200,617,200C548.6,200,480,200,411,200C342.9,200,274,200,206,200C137.1,200,69,200,34,200L0,200Z"/><defs><linearGradient id="sw-gradient-1" x1="0" x2="0" y1="1" y2="0"><stop stop-color="rgba(214.338, 214.338, 214.338, 1)" offset="0%"/><stop stop-color="rgba(157.418, 157.263, 156.918, 1)" offset="100%"/></linearGradient></defs><path style="transform:translate(0, 50px); opacity:0.9" fill="url(#sw-gradient-1)" d="M0,100L34.3,96.7C68.6,93,137,87,206,76.7C274.3,67,343,53,411,40C480,27,549,13,617,33.3C685.7,53,754,107,823,120C891.4,133,960,107,1029,90C1097.1,73,1166,67,1234,80C1302.9,93,1371,127,1440,123.3C1508.6,120,1577,80,1646,76.7C1714.3,73,1783,107,1851,113.3C1920,120,1989,100,2057,103.3C2125.7,107,2194,133,2263,140C2331.4,147,2400,133,2469,116.7C2537.1,100,2606,80,2674,60C2742.9,40,2811,20,2880,20C2948.6,20,3017,40,3086,70C3154.3,100,3223,140,3291,153.3C3360,167,3429,153,3497,130C3565.7,107,3634,73,3703,66.7C3771.4,60,3840,80,3909,103.3C3977.1,127,4046,153,4114,146.7C4182.9,140,4251,100,4320,96.7C4388.6,93,4457,127,4526,146.7C4594.3,167,4663,173,4731,160C4800,147,4869,113,4903,96.7L4937.1,80L4937.1,200L4902.9,200C4868.6,200,4800,200,4731,200C4662.9,200,4594,200,4526,200C4457.1,200,4389,200,4320,200C4251.4,200,4183,200,4114,200C4045.7,200,3977,200,3909,200C3840,200,3771,200,3703,200C3634.3,200,3566,200,3497,200C3428.6,200,3360,200,3291,200C3222.9,200,3154,200,3086,200C3017.1,200,2949,200,2880,200C2811.4,200,2743,200,2674,200C2605.7,200,2537,200,2469,200C2400,200,2331,200,2263,200C2194.3,200,2126,200,2057,200C1988.6,200,1920,200,1851,200C1782.9,200,1714,200,1646,200C1577.1,200,1509,200,1440,200C1371.4,200,1303,200,1234,200C1165.7,200,1097,200,1029,200C960,200,891,200,823,200C754.3,200,686,200,617,200C548.6,200,480,200,411,200C342.9,200,274,200,206,200C137.1,200,69,200,34,200L0,200Z"/></svg>