<!--?xml version="1.0" standalone="no"?-->
              <svg id="sw-js-blob-svg" viewBox="0 0 100 100" xmlns="http://www.w3.org/2000/svg" version="1.1">
                    <defs> 
                        <linearGradient id="sw-gradient" x1="0" x2="1" y1="1" y2="0">
                            <stop id="stop1" stop-color="rgba(255, 255, 255, 1)" offset="0%"></stop>
                            <stop id="stop2" stop-color="rgba(222.058, 222.058, 222.058, 1)" offset="100%"></stop>
                        </linearGradient>
                    </defs>
                <path fill="url(#sw-gradient)" d="M23.3,-30.4C28.2,-23.5,29,-14.4,28.9,-6.4C28.8,1.7,27.9,8.6,24.8,14.7C21.7,20.8,16.6,26.1,9.7,30.3C2.7,34.5,-6,37.5,-15,36.3C-24.1,35.2,-33.4,29.9,-35.5,22.4C-37.6,14.8,-32.4,5,-29.4,-4C-26.3,-12.9,-25.4,-21.1,-20.9,-28.1C-16.3,-35,-8.2,-40.9,0.5,-41.4C9.1,-42,18.3,-37.4,23.3,-30.4Z" width="100%" height="100%" transform="translate(50 50)" stroke-width="0" style="transition: 0.3s;" stroke="url(#sw-gradient)"></path>
              </svg>