<?xml version="1.0" standalone="no"?>
<svg xmlns:xlink="http://www.w3.org/1999/xlink" id="wave" style="transform:rotate(180deg); transition: 0.3s" viewBox="0 0 1440 120" version="1.1" xmlns="http://www.w3.org/2000/svg"><defs><linearGradient id="sw-gradient-0" x1="0" x2="0" y1="1" y2="0"><stop stop-color="rgba(223.445, 223.445, 223.445, 1)" offset="0%"/><stop stop-color="rgba(255, 255, 255, 1)" offset="100%"/></linearGradient></defs><path style="transform:translate(0, 0px); opacity:1" fill="url(#sw-gradient-0)" d="M0,108L48,92C96,76,192,44,288,32C384,20,480,28,576,38C672,48,768,60,864,68C960,76,1056,80,1152,74C1248,68,1344,52,1440,40C1536,28,1632,20,1728,24C1824,28,1920,44,2016,56C2112,68,2208,76,2304,80C2400,84,2496,84,2592,78C2688,72,2784,60,2880,56C2976,52,3072,56,3168,48C3264,40,3360,20,3456,16C3552,12,3648,24,3744,38C3840,52,3936,68,4032,64C4128,60,4224,36,4320,30C4416,24,4512,36,4608,44C4704,52,4800,56,4896,54C4992,52,5088,44,5184,40C5280,36,5376,36,5472,30C5568,24,5664,12,5760,16C5856,20,5952,40,6048,40C6144,40,6240,20,6336,14C6432,8,6528,16,6624,28C6720,40,6816,56,6864,64L6912,72L6912,120L6864,120C6816,120,6720,120,6624,120C6528,120,6432,120,6336,120C6240,120,6144,120,6048,120C5952,120,5856,120,5760,120C5664,120,5568,120,5472,120C5376,120,5280,120,5184,120C5088,120,4992,120,4896,120C4800,120,4704,120,4608,120C4512,120,4416,120,4320,120C4224,120,4128,120,4032,120C3936,120,3840,120,3744,120C3648,120,3552,120,3456,120C3360,120,3264,120,3168,120C3072,120,2976,120,2880,120C2784,120,2688,120,2592,120C2496,120,2400,120,2304,120C2208,120,2112,120,2016,120C1920,120,1824,120,1728,120C1632,120,1536,120,1440,120C1344,120,1248,120,1152,120C1056,120,960,120,864,120C768,120,672,120,576,120C480,120,384,120,288,120C192,120,96,120,48,120L0,120Z"/></svg>